<svg width="212.000000" height="34.000000" viewBox="0 0 212 34" fill="none" xmlns="http://www.w3.org/2000/svg" xmlns:xlink="http://www.w3.org/1999/xlink">
	<desc>
			Created with Pixso.
	</desc>
	<defs>
		<clipPath id="clip7_2">
			<rect width="30.000000" height="30.000000" transform="translate(138.000000 2.000000)" fill="white" fill-opacity="0"/>
		</clipPath>
		<clipPath id="clip7_11">
			<rect width="30.000000" height="30.000000" transform="translate(182.000000 4.000000)" fill="white" fill-opacity="0"/>
		</clipPath>
		<clipPath id="clip7_5">
			<rect width="32.000000" height="32.000000" fill="white" fill-opacity="0"/>
		</clipPath>
		<clipPath id="clip7_7">
			<rect width="32.000000" height="32.000000" transform="translate(46.000000 0.000000)" fill="white" fill-opacity="0"/>
		</clipPath>
		<clipPath id="clip7_9">
			<rect width="32.000000" height="32.000000" transform="translate(92.000000 0.000000)" fill="white" fill-opacity="0"/>
		</clipPath>
	</defs>
	<rect width="30.000000" height="30.000000" transform="translate(138.000000 2.000000)" fill="#FFFFFF" fill-opacity="0"/>
	<g clip-path="url(#clip7_2)">
		<path d="M160.65 30.33C160.28 30.33 159.92 30.22 159.62 30.01L153.4 25.85C153.37 25.82 153.34 25.81 153.3 25.81C153.26 25.81 153.23 25.82 153.2 25.85L146.98 30.01C146.67 30.22 146.3 30.33 145.92 30.32C145.55 30.32 145.18 30.2 144.88 29.98C144.57 29.76 144.34 29.46 144.21 29.1C144.08 28.75 144.07 28.37 144.16 28L146.2 20.8C146.21 20.77 146.21 20.73 146.2 20.69C146.19 20.66 146.17 20.63 146.14 20.6L140.25 15.98C139.94 15.75 139.71 15.43 139.6 15.06C139.48 14.69 139.48 14.29 139.6 13.93C139.72 13.56 139.95 13.24 140.26 13.01C140.57 12.78 140.94 12.65 141.33 12.65L148.83 12.36C148.87 12.36 148.9 12.35 148.93 12.32C148.96 12.3 148.98 12.27 149 12.24L151.58 5.21C151.71 4.86 151.95 4.55 152.26 4.33C152.57 4.11 152.94 4 153.32 4C153.7 4 154.07 4.11 154.38 4.33C154.69 4.55 154.92 4.86 155.05 5.21L157.64 12.24C157.65 12.27 157.67 12.3 157.7 12.32C157.73 12.35 157.77 12.36 157.8 12.36L165.3 12.65C165.69 12.65 166.06 12.78 166.37 13.01C166.69 13.24 166.92 13.56 167.03 13.93C167.15 14.29 167.15 14.69 167.04 15.06C166.92 15.43 166.69 15.75 166.38 15.98L160.5 20.6C160.47 20.63 160.44 20.66 160.43 20.69C160.42 20.73 160.42 20.77 160.43 20.8L162.47 28C162.54 28.28 162.55 28.57 162.49 28.85C162.43 29.13 162.31 29.39 162.14 29.61C161.96 29.84 161.74 30.02 161.48 30.14C161.22 30.27 160.94 30.33 160.65 30.33ZM153.3 24.15C153.67 24.16 154.03 24.28 154.33 24.5L160.55 28.66C160.58 28.69 160.62 28.7 160.66 28.7C160.69 28.7 160.73 28.69 160.77 28.66C160.8 28.64 160.82 28.61 160.83 28.57C160.84 28.53 160.84 28.49 160.83 28.45L158.79 21.25C158.69 20.9 158.69 20.53 158.81 20.18C158.92 19.83 159.14 19.52 159.43 19.29L165.31 14.67C165.34 14.65 165.37 14.62 165.38 14.58C165.39 14.54 165.39 14.5 165.38 14.46C165.37 14.43 165.35 14.39 165.31 14.37C165.28 14.35 165.24 14.34 165.2 14.34L157.7 14.05C157.34 14.04 156.98 13.92 156.69 13.7C156.39 13.48 156.16 13.18 156.04 12.84L153.45 5.81C153.44 5.77 153.42 5.74 153.39 5.72C153.36 5.7 153.32 5.68 153.28 5.68C153.24 5.68 153.2 5.7 153.17 5.72C153.14 5.74 153.12 5.77 153.1 5.81L150.55 12.83C150.42 13.17 150.19 13.47 149.9 13.69C149.6 13.91 149.25 14.03 148.88 14.05L141.38 14.33C141.34 14.33 141.3 14.34 141.27 14.36C141.24 14.39 141.21 14.42 141.2 14.46C141.19 14.49 141.19 14.53 141.2 14.57C141.21 14.61 141.24 14.64 141.27 14.66L147.16 19.29C147.45 19.52 147.67 19.83 147.78 20.18C147.89 20.53 147.9 20.9 147.8 21.25L145.77 28.45C145.76 28.49 145.76 28.53 145.77 28.56C145.78 28.6 145.81 28.63 145.84 28.65C145.87 28.68 145.91 28.69 145.95 28.69C145.99 28.69 146.02 28.68 146.05 28.65L152.27 24.49C152.57 24.29 152.93 24.18 153.3 24.18L153.3 24.15Z" fill="#FFFFFF" fill-opacity="1.000000" fill-rule="nonzero"/>
	</g>
	<rect width="30.000000" height="30.000000" transform="translate(182.000000 4.000000)" fill="#FFFFFF" fill-opacity="0"/>
	<g clip-path="url(#clip7_11)">
		<path d="M204.65 32.33C204.29 32.33 203.93 32.22 203.62 32.01L197.4 27.85C197.37 27.82 197.34 27.81 197.3 27.81C197.26 27.81 197.23 27.82 197.2 27.85L190.98 32.01C190.67 32.22 190.3 32.33 189.92 32.32C189.55 32.32 189.18 32.2 188.88 31.98C188.57 31.76 188.34 31.46 188.21 31.1C188.08 30.75 188.07 30.37 188.16 30L190.2 22.8C190.21 22.77 190.21 22.73 190.2 22.69C190.19 22.66 190.17 22.63 190.14 22.6L184.25 17.98C183.94 17.75 183.71 17.43 183.6 17.06C183.48 16.69 183.48 16.29 183.6 15.93C183.72 15.56 183.95 15.24 184.26 15.01C184.57 14.78 184.94 14.65 185.33 14.65L192.83 14.36C192.87 14.36 192.9 14.35 192.93 14.32C192.96 14.3 192.98 14.27 193 14.24L195.58 7.21C195.71 6.86 195.95 6.55 196.26 6.33C196.57 6.11 196.94 6 197.32 6C197.7 6 198.07 6.11 198.38 6.33C198.69 6.55 198.92 6.86 199.05 7.21L201.64 14.24C201.65 14.27 201.67 14.3 201.7 14.32C201.73 14.35 201.77 14.36 201.8 14.36L209.3 14.65C209.69 14.65 210.06 14.78 210.37 15.01C210.69 15.24 210.92 15.56 211.03 15.93C211.15 16.29 211.15 16.69 211.04 17.06C210.92 17.43 210.69 17.75 210.38 17.98L204.5 22.6C204.47 22.63 204.44 22.66 204.43 22.69C204.42 22.73 204.42 22.77 204.43 22.8L206.47 30C206.54 30.28 206.55 30.57 206.49 30.85C206.43 31.13 206.31 31.39 206.14 31.61C205.96 31.84 205.74 32.02 205.48 32.14C205.22 32.27 204.94 32.33 204.65 32.33ZM197.3 26.15C197.67 26.16 198.03 26.28 198.33 26.5L204.55 30.66C204.58 30.69 204.62 30.7 204.66 30.7C204.69 30.7 204.73 30.69 204.77 30.66C204.8 30.64 204.82 30.61 204.83 30.57C204.84 30.53 204.84 30.49 204.83 30.45L202.79 23.25C202.69 22.9 202.69 22.53 202.81 22.18C202.92 21.83 203.14 21.52 203.43 21.3L209.31 16.67C209.34 16.65 209.37 16.62 209.38 16.58C209.39 16.54 209.39 16.5 209.38 16.46C209.37 16.43 209.35 16.39 209.31 16.37C209.28 16.35 209.24 16.34 209.2 16.34L201.7 16.05C201.34 16.04 200.98 15.92 200.69 15.7C200.39 15.48 200.16 15.18 200.04 14.84L197.45 7.81C197.44 7.77 197.42 7.74 197.39 7.72C197.36 7.7 197.32 7.68 197.28 7.68C197.24 7.68 197.2 7.7 197.17 7.72C197.14 7.74 197.12 7.77 197.1 7.81L194.55 14.83C194.42 15.17 194.19 15.47 193.9 15.69C193.6 15.91 193.25 16.03 192.88 16.04L185.38 16.33C185.34 16.33 185.3 16.34 185.27 16.36C185.24 16.39 185.21 16.42 185.2 16.45C185.19 16.49 185.19 16.53 185.2 16.57C185.21 16.61 185.24 16.64 185.27 16.66L191.16 21.3C191.45 21.52 191.67 21.83 191.78 22.18C191.9 22.53 191.9 22.9 191.8 23.25L189.77 30.45C189.76 30.49 189.76 30.53 189.77 30.56C189.78 30.6 189.81 30.63 189.84 30.65C189.87 30.68 189.91 30.69 189.95 30.69C189.99 30.69 190.02 30.68 190.05 30.65L196.27 26.49C196.57 26.29 196.93 26.18 197.3 26.18L197.3 26.15Z" fill="#FFFFFF" fill-opacity="1.000000" fill-rule="nonzero"/>
	</g>
	<rect width="32.000000" height="32.000000" fill="#FFFFFF" fill-opacity="0"/>
	<g clip-path="url(#clip7_5)">
		<path d="M16 2L11.45 11.22L1.28 12.69L8.64 19.87L6.9 30L16 25.22L25.1 30L23.36 19.87L30.72 12.7L20.55 11.22L16 2Z" fill="#FFEA2B" fill-opacity="1.000000" fill-rule="nonzero"/>
	</g>
	<rect width="32.000000" height="32.000000" transform="translate(46.000000 0.000000)" fill="#FFFFFF" fill-opacity="0"/>
	<g clip-path="url(#clip7_7)">
		<path d="M62 2L57.45 11.22L47.28 12.69L54.64 19.87L52.9 30L62 25.22L71.1 30L69.36 19.87L76.72 12.7L66.55 11.22L62 2Z" fill="#FFEA2B" fill-opacity="1.000000" fill-rule="nonzero"/>
	</g>
	<rect width="32.000000" height="32.000000" transform="translate(92.000000 0.000000)" fill="#FFFFFF" fill-opacity="0"/>
	<g clip-path="url(#clip7_9)">
		<path d="M108 2L103.45 11.22L93.28 12.69L100.64 19.87L98.9 30L108 25.22L117.1 30L115.36 19.87L122.72 12.7L112.55 11.22L108 2Z" fill="#FFEA2B" fill-opacity="1.000000" fill-rule="nonzero"/>
	</g>
</svg>
